<?xml version="1.0" encoding="utf-8"?>
<!-- Generator: Adobe Illustrator 21.1.0, SVG Export Plug-In . SVG Version: 6.00 Build 0)  -->
<svg version="1.1" id="Layer_1" xmlns="http://www.w3.org/2000/svg" xmlns:xlink="http://www.w3.org/1999/xlink" x="0px" y="0px"
	 viewBox="0 0 60 60" style="enable-background:new 0 0 60 60;" xml:space="preserve">
<style type="text/css">
	.st0{fill:#FFFFFF;}
</style>
<g>
	<g>
		<path shape-rendering="geometricPrecision" class="st0" d="M30,1C14.1,1,1,14.1,1,30s13.1,29,29,29s29-13,29-29S46,1,30,1z
			 M30,58.3c-15.6,0-28.3-12.7-28.3-28.2S14.4,1.9,30,1.9s28.2,12.7,28.2,28.2S45.6,58.3,30,58.3z"/>
		<path shape-rendering="geometricPrecision" class="st0" d="M30,1C14.1,1,1,14.1,1,30s13.1,29,29,29s29-13,29-29S46,1,30,1L30,1z
			 M30,58.3C14.4,58.3,1.7,45.7,1.7,30S14.4,1.9,30,1.9s28.3,12.7,28.3,28.2S45.6,58.3,30,58.3L30,58.3z"/>
	</g>
	<polygon class="st0" points="23.1,18 23.1,42.1 41.7,30 	"/>
</g>
</svg>
